<?xml version="1.0" ?><svg xmlns="http://www.w3.org/2000/svg" id="Layer_2" viewBox="0 0 32 32"><defs><style>.cls-1{fill:none;}.cls-1,.cls-2{stroke-width:0px;}</style></defs><g id="icons"><g id="Person"><g id="User"><path class="cls-2" d="m27.3,12c-.69,0-1.38.27-1.91.81l-.39.41-.4-.41c-.53-.54-1.22-.81-1.91-.81s-1.38.27-1.91.81c-1.05,1.07-1.05,2.82,0,3.9l4.21,4.3,4.21-4.3c1.05-1.07,1.05-2.82,0-3.9-.53-.54-1.22-.81-1.91-.81h0Z"/><path class="cls-2" d="m2,30h2s0-5,0-5c0-2.76,2.24-5,5-5h6c2.76,0,5,2.24,5,5v5s2,0,2,0v-5c0-3.86-3.14-7-7-7h-6c-3.86,0-7,3.14-7,7v5Z"/><path class="cls-2" d="m12,4c2.76,0,5,2.24,5,5s-2.24,5-5,5-5-2.24-5-5c0-2.76,2.24-5,5-5m0-2c-3.87,0-7,3.13-7,7s3.13,7,7,7,7-3.13,7-7-3.13-7-7-7Z"/><rect id="_Transparent_Rectangle_" class="cls-1" width="32" height="32"/></g></g></g></svg>