<?xml version="1.0" ?><svg xmlns="http://www.w3.org/2000/svg" xmlns:xlink="http://www.w3.org/1999/xlink" version="1.1" viewBox="0 0 64 64" style="enable-background:new 0 0 64 64;" xml:space="preserve"><g id="coral_reef"/><g id="green_algae"/><g id="shark_warning"/><g id="squid"/><g id="dolpine"/><g id="fish"/><g id="turtle"/><g id="anchor"/><g id="buoy"/><g id="compass"><g><path d="M32,3C16,3,3,16,3,32s13,29,29,29s29-13,29-29S48,3,32,3z M32,59C17.1,59,5,46.9,5,32S17.1,5,32,5s27,12.1,27,27    S46.9,59,32,59z"/><path d="M32,8C18.8,8,8,18.8,8,32s10.8,24,24,24s24-10.8,24-24S45.2,8,32,8z M32,54c-12.1,0-22-9.9-22-22s9.9-22,22-22    s22,9.9,22,22S44.1,54,32,54z"/><path d="M37.3,27.4L33,12.7c-0.1-0.4-0.5-0.7-1-0.7s-0.8,0.3-1,0.7l-4.3,14.7C25.7,28.6,25,30.2,25,32s0.7,3.4,1.7,4.6L31,51.3    c0.1,0.4,0.5,0.7,1,0.7s0.8-0.3,1-0.7l4.3-14.7c1.1-1.2,1.7-2.8,1.7-4.6S38.3,28.6,37.3,27.4z M32,37c-2.8,0-5-2.2-5-5s2.2-5,5-5    s5,2.2,5,5S34.8,37,32,37z M32,16.6l2.6,9C33.8,25.2,32.9,25,32,25s-1.8,0.2-2.6,0.5L32,16.6z M32,47.4l-2.6-9    c0.8,0.3,1.7,0.5,2.6,0.5s1.8-0.2,2.6-0.5L32,47.4z"/><path d="M52,31h-2c-0.6,0-1,0.4-1,1s0.4,1,1,1h2c0.6,0,1-0.4,1-1S52.6,31,52,31z"/><path d="M14,31h-2c-0.6,0-1,0.4-1,1s0.4,1,1,1h2c0.6,0,1-0.4,1-1S14.6,31,14,31z"/></g></g><g id="lifebuoy"/><g id="lifejacket"/><g id="license"/><g id="pressure"/><g id="gloves"/><g id="oxygen"/><g id="neoprene_clothes"/><g id="fins"/><g id="goggles"/><g id="ocean"/></svg>