<?xml version="1.0" ?><!DOCTYPE svg  PUBLIC '-//W3C//DTD SVG 1.1//EN'  'http://www.w3.org/Graphics/SVG/1.1/DTD/svg11.dtd'><svg xmlns="http://www.w3.org/2000/svg" xmlns:xlink="http://www.w3.org/1999/xlink" xmlns:serif="http://www.serif.com/" width="100%" height="100%" viewBox="0 0 512 512" version="1.1" xml:space="preserve" style="fill-rule:evenodd;clip-rule:evenodd;stroke-linejoin:round;stroke-miterlimit:2;"><g transform="matrix(1,0,0,1,-2248,-2810)"><g id="Icons"><path d="M2553.07,2910.7C2543.48,2911.89 2534.05,2914.26 2524.56,2916.48C2524.54,2916.02 2524.51,2915.54 2524.48,2915.04C2524.15,2909.87 2523.58,2904.26 2523.58,2904.26C2523.58,2904.26 2521.18,2909.37 2519.17,2914.14C2518.56,2915.61 2518.01,2916.94 2517.59,2918.07C2516.51,2918.3 2515.43,2918.53 2514.35,2918.76C2505.96,2920.47 2497.41,2921.76 2488.87,2923.17C2489.19,2918.68 2489.32,2913.92 2489.32,2913.92C2489.32,2913.92 2486.38,2917.74 2483.79,2921.46C2483.04,2922.54 2482.37,2923.52 2481.83,2924.38C2477.66,2925.13 2473.51,2925.94 2469.39,2926.89C2468.95,2923.75 2468.42,2920.95 2468.42,2920.95C2468.42,2920.95 2466.27,2923.86 2464.31,2926.89C2463.95,2927.43 2463.64,2927.93 2463.36,2928.39C2460.6,2929.13 2457.88,2929.94 2455.18,2930.85C2454.02,2931.24 2452.87,2931.64 2451.73,2932.06C2451.13,2928.91 2450.47,2926.11 2450.47,2926.11C2450.47,2926.11 2448.46,2929.29 2446.67,2932.54C2446.28,2933.24 2445.95,2933.86 2445.66,2934.43C2440.59,2936.53 2435.65,2938.87 2430.79,2941.34C2430.69,2940.66 2430.59,2939.95 2430.48,2939.22C2429.57,2933.12 2428.34,2926.39 2428.34,2926.39C2428.34,2926.39 2426.53,2932.99 2425.1,2938.99C2424.56,2941.25 2424.1,2943.3 2423.81,2944.88C2423.8,2944.92 2423.79,2944.97 2423.78,2945.01C2418.68,2947.75 2413.62,2950.59 2408.54,2953.41C2408.49,2953.16 2408.43,2952.91 2408.37,2952.66C2407.18,2947.69 2405.68,2942.34 2405.68,2942.34C2405.68,2942.34 2404.17,2947.69 2402.99,2952.66C2402.6,2954.3 2402.26,2955.77 2402.04,2956.98C2398.85,2958.72 2395.63,2960.42 2392.39,2962.07C2390.48,2963.04 2388.55,2964.01 2386.6,2964.98C2385.72,2960.52 2384.57,2955.86 2384.57,2955.86C2384.57,2955.86 2382.76,2960.41 2381.26,2964.74C2380.81,2966.04 2380.42,2967.2 2380.12,2968.2C2374.52,2970.98 2368.79,2973.82 2363.04,2976.76C2361.85,2972.8 2360.44,2968.83 2360.44,2968.83C2360.44,2968.83 2358.96,2973.01 2357.75,2977.07C2357.44,2978.12 2357.16,2979.06 2356.95,2979.9C2331.93,2992.98 2307.07,3008.23 2290.44,3029.14C2286.45,3034.16 2284.82,3040.04 2283.74,3046.14C2282.81,3051.33 2282.31,3056.68 2280.4,3061.59C2271.99,3083.2 2268.85,3106.27 2268.96,3130.47C2268.97,3132.75 2267.93,3135.24 2266.73,3137.85C2265.23,3141.11 2263.4,3144.48 2262.07,3147.79C2259.85,3153.3 2259.09,3158.7 2261.57,3163.42C2265.66,3171.2 2272.24,3173.8 2279.47,3173.81C2285.27,3173.81 2291.53,3172 2296.92,3170.16C2325.44,3177.89 2356.02,3176.39 2385.08,3180.66C2387.54,3181.02 2390.11,3181.39 2392.73,3181.84C2394.24,3185.29 2395.73,3188.92 2395.85,3192.72C2395.99,3197.05 2392.84,3199.79 2389.49,3201.99C2382.22,3206.79 2374.07,3208.02 2366.03,3210.89C2359.34,3213.28 2353.79,3218.35 2350.71,3224.71C2350.35,3225.45 2348.8,3228.28 2348.38,3229.72C2347.85,3231.51 2348.31,3232.86 2348.7,3233.53C2348.97,3234 2349.47,3234.73 2350.6,3235.22C2350.78,3235.29 2351.55,3235.54 2352.85,3235.65C2354.47,3235.78 2357.86,3235.95 2362.01,3236.12C2362.13,3236.13 2362.25,3236.14 2362.37,3236.14C2372.54,3236.56 2386.99,3236.97 2391.3,3236.8C2394.61,3237.45 2399.5,3237.8 2405.07,3237.93C2405.41,3237.99 2405.77,3237.99 2406.11,3237.96C2419.31,3238.2 2435.9,3237.28 2444.36,3236.22C2447.28,3235.86 2449.35,3235.42 2450.26,3235.07C2451.27,3234.68 2451.86,3234.15 2452.19,3233.78C2455.35,3230.22 2459,3222.29 2463.5,3216.63C2465.56,3214.03 2467.63,3211.74 2470.31,3211.9C2477.27,3212.32 2484.34,3215.45 2491.37,3216.2C2502.4,3217.39 2513.66,3216.87 2524.74,3216.69C2530.05,3216.6 2536.47,3215.64 2542.82,3215.2C2548.25,3214.83 2553.64,3214.79 2557.99,3216.45C2557.82,3216.71 2557.63,3216.97 2557.45,3217.19C2556.51,3218.35 2555.34,3219.58 2554.2,3220.86C2552.32,3222.96 2550.58,3225.2 2549.63,3227.42C2548.74,3229.5 2548.47,3231.6 2548.97,3233.66C2549.01,3233.85 2549.53,3235.96 2552.23,3236.72C2553.92,3237.2 2559.8,3238.58 2565.3,3239.69C2565.48,3239.74 2565.66,3239.77 2565.84,3239.8C2569.11,3240.45 2572.19,3240.99 2574.09,3241.17C2594.32,3243.1 2615.89,3240.99 2635.93,3238.06C2639.33,3237.57 2650.9,3236.75 2653.2,3236.54C2655.82,3236.31 2656.72,3234.52 2656.76,3234.46C2658.54,3231.24 2659.45,3228.06 2660.38,3224.98C2661.44,3221.45 2662.48,3218.04 2666.14,3215.02C2671.53,3210.6 2677.93,3208.37 2684.35,3206.16C2684.39,3206.15 2684.43,3206.14 2684.47,3206.12C2684.53,3206.1 2684.6,3206.08 2684.66,3206.06C2685.41,3205.8 2686.16,3205.54 2686.92,3205.28C2695.22,3202.38 2703.33,3199.11 2709.82,3192.24C2722.57,3178.71 2723.67,3161.28 2726.22,3143.97C2727.24,3137.06 2728.55,3130.24 2729.77,3123.45C2730.57,3123.29 2731.46,3123.09 2732.41,3122.86C2736.93,3121.81 2741.69,3120.46 2741.69,3120.46C2741.69,3120.46 2737.02,3118.82 2732.58,3117.48C2731.99,3117.31 2731.43,3117.14 2730.9,3116.99C2732.1,3109.81 2733.08,3102.64 2733.38,3095.41C2733.72,3095.44 2734.08,3095.47 2734.44,3095.49C2739.06,3095.8 2744,3095.91 2744,3095.91C2744,3095.91 2740.02,3092.98 2736.18,3090.4C2735.18,3089.73 2734.27,3089.13 2733.46,3088.63C2733.39,3085.2 2733.14,3081.76 2732.67,3078.29C2732.75,3078.31 2732.84,3078.33 2732.93,3078.36C2738.19,3079.73 2744,3081.02 2744,3081.02C2744,3081.02 2739.57,3077.04 2735.39,3073.57C2733.81,3072.26 2732.4,3071.12 2731.27,3070.29C2731.22,3070.26 2731.18,3070.22 2731.14,3070.2C2729,3061.45 2725.23,3053.34 2721.07,3045.38C2721.52,3045.25 2721.98,3045.11 2722.46,3044.97C2727.48,3043.44 2732.88,3041.57 2732.88,3041.57C2732.88,3041.57 2727.28,3040.44 2722.1,3039.6C2720.42,3039.33 2718.9,3039.1 2717.65,3038.95C2714.25,3032.66 2710.83,3026.39 2708.02,3019.89L2707.96,3019.75C2708.36,3019.66 2708.78,3019.56 2709.21,3019.46C2714.21,3018.28 2719.59,3016.78 2719.59,3016.78C2719.59,3016.78 2714.22,3015.27 2709.22,3014.08C2707.67,3013.7 2706.26,3013.39 2705.08,3013.16C2703.37,3009.3 2701.57,3005.35 2699.65,3001.41C2700.39,3000.78 2701.2,3000.05 2702.07,2999.26C2705.91,2995.77 2709.94,2991.82 2709.94,2991.82C2709.94,2991.82 2704.45,2993.14 2699.46,2994.55C2698.43,2994.85 2697.47,2995.12 2696.61,2995.39C2694.49,2991.36 2692.24,2987.4 2689.82,2983.63C2691.19,2983.25 2692.71,2982.81 2694.31,2982.35C2701.69,2980.19 2709.94,2977.55 2709.94,2977.55C2709.94,2977.55 2701.29,2977.16 2693.6,2977.01C2690.68,2976.96 2688.01,2976.93 2686,2976.98C2685.73,2976.99 2685.47,2976.99 2685.23,2977C2683.24,2974.34 2681.14,2971.82 2678.92,2969.5C2677.64,2968.17 2676.33,2966.83 2674.99,2965.5C2675.25,2965.3 2675.51,2965.08 2675.78,2964.87C2679.47,2961.82 2683.29,2958.39 2683.29,2958.39C2683.29,2958.39 2678.2,2959.11 2673.5,2959.99C2672.19,2960.23 2671.01,2960.47 2670,2960.7C2666.49,2957.42 2662.81,2954.19 2658.97,2951.04C2659.4,2950.68 2659.85,2950.3 2660.31,2949.92C2664.47,2946.4 2668.87,2942.39 2668.87,2942.39C2668.87,2942.39 2663.06,2943.73 2657.81,2945.15C2656.07,2945.62 2654.5,2946.07 2653.24,2946.47C2651,2944.75 2648.73,2943.07 2646.42,2941.42C2646.72,2940.94 2647.04,2940.44 2647.38,2939.91C2649.95,2935.83 2652.52,2931.32 2652.52,2931.32C2652.52,2931.32 2647.88,2933.65 2643.67,2936.01C2642.65,2936.58 2641.71,2937.12 2640.89,2937.61C2637.49,2935.33 2634.02,2933.14 2630.49,2931.07C2631.05,2930.67 2631.64,2930.24 2632.25,2929.81C2637.6,2925.96 2643.43,2921.48 2643.43,2921.48C2643.43,2921.48 2636.28,2923.21 2629.92,2924.96C2627.52,2925.62 2625.35,2926.24 2623.72,2926.77C2623.52,2926.84 2623.33,2926.9 2623.15,2926.96C2620.08,2925.33 2616.98,2923.79 2613.86,2922.35C2614,2920.62 2614.11,2918.42 2614.21,2916.02C2614.49,2909.16 2614.58,2901.47 2614.58,2901.47C2614.58,2901.47 2611.51,2908.52 2608.95,2914.9C2608.29,2916.54 2607.68,2918.09 2607.17,2919.44C2603.04,2917.75 2598.88,2916.25 2594.7,2914.96C2594.68,2914.39 2594.67,2913.78 2594.65,2913.12C2594.5,2908.8 2594.12,2904.26 2594.12,2904.26C2594.12,2904.26 2591.62,2908.07 2589.43,2911.8C2589.13,2912.3 2588.85,2912.78 2588.59,2913.24C2583.99,2912.06 2579.38,2911.15 2574.79,2910.55C2570.33,2909.97 2565.94,2909.83 2561.6,2909.99C2561.9,2909.26 2562.2,2908.49 2562.52,2907.69C2565.03,2901.3 2567.64,2894.08 2567.64,2894.08C2567.64,2894.08 2562.43,2899.72 2557.92,2904.9C2556.21,2906.86 2554.68,2908.66 2553.57,2910.06C2553.39,2910.29 2553.22,2910.5 2553.07,2910.7ZM2589.31,2921.7C2584.14,2920.25 2578.94,2919.16 2573.76,2918.49C2567.79,2917.71 2561.94,2917.77 2556.17,2918.34C2555.85,2918.41 2555.51,2918.45 2555.18,2918.44C2543.91,2919.66 2532.91,2922.77 2521.77,2925.33C2521.62,2925.37 2521.47,2925.4 2521.33,2925.43C2519.54,2925.83 2517.74,2926.23 2515.95,2926.59C2505.9,2928.65 2495.6,2930.06 2485.39,2931.84C2485.15,2931.9 2484.9,2931.95 2484.66,2931.97C2478.76,2933 2472.9,2934.17 2467.14,2935.65C2467.01,2935.7 2466.87,2935.73 2466.74,2935.76C2463.7,2936.55 2460.7,2937.43 2457.73,2938.43C2455.18,2939.29 2452.67,2940.22 2450.19,2941.22C2450.1,2941.26 2450,2941.3 2449.9,2941.33C2442.94,2944.14 2436.23,2947.43 2429.63,2950.92C2429.41,2951.06 2429.19,2951.18 2428.95,2951.28C2421.85,2955.05 2414.87,2959.05 2407.81,2962.93C2407.67,2963.02 2407.53,2963.09 2407.38,2963.16C2403.62,2965.23 2399.84,2967.26 2396.01,2969.2C2392.58,2970.94 2389.06,2972.69 2385.48,2974.46C2385.36,2974.53 2385.22,2974.6 2385.09,2974.66C2377.79,2978.26 2370.26,2981.95 2362.72,2985.84C2362.44,2986.04 2362.12,2986.2 2361.79,2986.32C2337.31,2998.99 2312.93,3013.71 2296.7,3034.12C2293.57,3038.06 2292.47,3042.75 2291.61,3047.54C2290.6,3053.24 2289.95,3059.1 2287.85,3064.49C2279.8,3085.17 2276.85,3107.26 2276.96,3130.43C2276.99,3135.58 2273.69,3141.7 2270.84,3147.73C2269.7,3150.14 2268.66,3152.54 2268.21,3154.86C2267.88,3156.56 2267.86,3158.2 2268.65,3159.7C2271.11,3164.37 2275.13,3165.81 2279.47,3165.81C2284.83,3165.81 2290.62,3163.89 2295.47,3162.2C2295.72,3162.11 2295.98,3162.05 2296.24,3162.01C2297.62,3161.64 2298.95,3161.24 2300.29,3160.86C2302.95,3160.1 2305.41,3159.44 2307.86,3158.6C2310.84,3157.57 2313.52,3156.57 2316.23,3155.35C2313.67,3158.12 2311.06,3160.68 2307.93,3163.26C2307.51,3163.61 2307.08,3163.95 2306.65,3164.29C2332.64,3169.86 2360.07,3168.9 2386.24,3172.74C2402.05,3175.06 2421.82,3178.74 2432.97,3191.67C2436.56,3195.83 2437.19,3199.57 2436.37,3202.77C2435.29,3206.93 2431.02,3210.64 2425.16,3213.46C2417.57,3217.1 2407.3,3219.6 2402.67,3222.14C2399.16,3224.06 2397.28,3227.22 2396.34,3229.47C2398.59,3229.72 2401.24,3229.88 2404.12,3229.98C2404.49,3229.66 2404.86,3229.35 2405.25,3229.07C2407.55,3227.45 2409.92,3226.24 2412.62,3225.48C2416.08,3224.51 2419.56,3224.18 2423.5,3224.39C2420.08,3225.74 2417.3,3227.41 2414.7,3229.51C2414.48,3229.69 2414.27,3229.87 2414.06,3230.05C2427.39,3229.88 2441.94,3228.77 2446.74,3227.76L2446.8,3227.75C2449.75,3223.99 2453.11,3216.83 2457.24,3211.65C2461.12,3206.77 2465.75,3203.61 2470.79,3203.92C2477.87,3204.35 2485.07,3207.48 2492.22,3208.25C2502.93,3209.4 2513.86,3208.86 2524.61,3208.69C2530.89,3208.59 2538.76,3207.22 2546.18,3207.03C2551.74,3206.89 2557.05,3207.4 2561.48,3209.23C2562.32,3209.57 2563.03,3209.97 2563.62,3210.38C2564.05,3209.98 2564.49,3209.58 2564.93,3209.2C2568.83,3205.8 2572.9,3203.15 2577.2,3201.23C2584.5,3197.97 2592.19,3196.78 2600.45,3197.82C2592.58,3198.38 2585.66,3200.87 2579.42,3205.18C2575.96,3207.57 2572.86,3210.58 2569.85,3214.08C2568.02,3216.2 2566.26,3218.5 2564.58,3221.03C2564.56,3221.06 2564.54,3221.08 2564.52,3221.1C2564.37,3221.32 2564.21,3221.54 2564.04,3221.76C2562.51,3223.73 2560.22,3225.93 2558.46,3228.21C2558.06,3228.73 2557.69,3229.25 2557.39,3229.78C2559.44,3230.27 2562.2,3230.89 2564.97,3231.47C2565.05,3231.41 2565.12,3231.34 2565.2,3231.27C2567.12,3229.56 2569.07,3228.21 2571.31,3227.15C2574.4,3225.69 2577.43,3224.83 2580.91,3224.39C2578.21,3226.23 2576.11,3228.26 2574.1,3230.72C2573.52,3231.43 2573.04,3232.15 2572.56,3232.91C2573.44,3233.04 2574.22,3233.15 2574.85,3233.21C2594.46,3235.08 2615.35,3232.99 2634.78,3230.15C2637.7,3229.72 2646.51,3229.05 2650.68,3228.72C2651.93,3225.91 2652.53,3223.13 2653.42,3220.46C2654.79,3216.33 2656.7,3212.43 2661.06,3208.84C2666.14,3204.67 2671.98,3202.13 2677.97,3199.94C2675.09,3193.66 2670.39,3188.19 2664.79,3183.74C2658.01,3178.35 2649.91,3174.42 2641.91,3172.46C2639.41,3171.85 2636.89,3171.4 2634.38,3171.03C2628.22,3170.14 2622.03,3169.74 2615.83,3168.86C2595.39,3165.93 2574.66,3164.08 2554.5,3159.88C2540.94,3157.04 2527.64,3153.15 2514.87,3147.18C2510.13,3144.97 2506.06,3142.21 2502.35,3139.12C2493.72,3131.93 2487.08,3122.98 2478.2,3115.43C2468.44,3107.12 2458.22,3099.48 2447.34,3093.02C2436.43,3086.53 2424.86,3081.23 2412.43,3077.65C2425.01,3080.86 2436.78,3085.82 2447.93,3092.01C2459.07,3098.19 2469.58,3105.59 2479.66,3113.66C2488.72,3120.93 2495.6,3129.66 2504.41,3136.57C2507.98,3139.37 2511.87,3141.86 2516.39,3143.81C2529.02,3149.29 2542.11,3152.71 2555.43,3155.12C2575.59,3158.76 2596.25,3160.07 2616.66,3162.45C2622.89,3163.18 2629.1,3163.43 2635.29,3164.18C2638.04,3164.52 2640.78,3164.96 2643.53,3165.57C2652.56,3167.57 2661.78,3171.76 2669.51,3177.7C2676.39,3182.98 2682.05,3189.64 2685.51,3197.29C2692.2,3194.93 2698.76,3192.29 2704,3186.75C2715.56,3174.49 2716,3158.5 2718.31,3142.8C2719.45,3135.07 2721,3127.46 2722.37,3119.87L2722.37,3119.86C2722.38,3119.45 2722.46,3119.06 2722.58,3118.69C2724.2,3109.63 2725.52,3100.61 2725.54,3091.45C2725.51,3091.14 2725.5,3090.82 2725.54,3090.49C2725.5,3084.88 2724.96,3079.21 2723.69,3073.46C2721.47,3063.4 2716.92,3054.24 2712.06,3045.22C2711.79,3044.87 2711.57,3044.47 2711.42,3044.04C2707.67,3037.11 2703.78,3030.23 2700.68,3023.07C2700.03,3021.56 2699.37,3020.03 2698.69,3018.48C2698.65,3018.4 2698.61,3018.31 2698.58,3018.22C2696.32,3013.07 2693.91,3007.71 2691.27,3002.43C2691.23,3002.37 2691.19,3002.3 2691.16,3002.24C2691.07,3002.08 2690.99,3001.91 2690.92,3001.74C2687.74,2995.43 2684.21,2989.25 2680.22,2983.67C2680.1,2983.52 2679.98,2983.36 2679.88,2983.19C2677.77,2980.28 2675.53,2977.53 2673.13,2975.03C2670.92,2972.71 2668.61,2970.4 2666.21,2968.11C2666.14,2968.05 2666.07,2967.98 2666.01,2967.92C2661.11,2963.26 2655.85,2958.68 2650.3,2954.29C2650.12,2954.18 2649.95,2954.04 2649.8,2953.9C2646.29,2951.14 2642.66,2948.47 2638.94,2945.9C2638.71,2945.77 2638.48,2945.62 2638.27,2945.44C2632.81,2941.7 2627.14,2938.19 2621.35,2935.02C2621.07,2934.91 2620.81,2934.77 2620.56,2934.6C2616.55,2932.43 2612.48,2930.41 2608.36,2928.6C2608.09,2928.51 2607.83,2928.39 2607.59,2928.26C2601.73,2925.7 2595.79,2923.53 2589.82,2921.84C2589.76,2921.83 2589.71,2921.82 2589.66,2921.8C2589.54,2921.77 2589.43,2921.74 2589.31,2921.7ZM2402.07,3183.71C2403.04,3186.55 2403.75,3189.47 2403.85,3192.45C2404.09,3199.78 2399.55,3204.94 2393.89,3208.67C2386.07,3213.83 2377.37,3215.33 2368.73,3218.42C2364.09,3220.08 2360.24,3223.57 2358.04,3227.94C2358.93,3227.99 2359.9,3228.03 2360.93,3228.08C2361.01,3228.01 2361.1,3227.95 2361.19,3227.88C2363,3226.6 2364.76,3225.62 2366.88,3225.04C2369.59,3224.3 2372.15,3224.05 2375.25,3224.39C2372.97,3225.52 2371.29,3226.83 2369.7,3228.42C2376.51,3228.66 2383.74,3228.85 2388.05,3228.86C2389.1,3224.82 2391.94,3218.89 2398.82,3215.12C2404.36,3212.09 2418.01,3209.12 2425.41,3204.18C2427.15,3203.01 2428.65,3201.94 2428.68,3200.34C2428.7,3199.28 2428.04,3198.2 2426.91,3196.9C2420.75,3189.75 2411.53,3186.01 2402.07,3183.71ZM2345.66,3053.92C2347.21,3051.91 2348.76,3050.2 2350.27,3048.74C2354.16,3045 2357.78,3042.95 2361.22,3042.68C2365.37,3042.36 2368.99,3044.41 2371.7,3048.1C2377.17,3055.55 2379.21,3068.64 2375.25,3083.45C2380.07,3071.44 2380.5,3060.07 2378.05,3051.65C2376.43,3046.08 2373.45,3041.83 2369.74,3039.25C2363.75,3035.11 2355.55,3035.2 2346.52,3042.04C2344.2,3043.8 2341.86,3046.09 2339.46,3048.86C2338.07,3050.58 2338.32,3053.1 2340.03,3054.49C2341.74,3055.89 2344.27,3055.63 2345.66,3053.92Z"/></g></g></svg>